# This file uses centimeters as units for non-parametric coordinates.

mtllib Camera_Stem.mtl
v 0.439166 8.308227 -0.760658
v -0.439166 8.308227 -0.760658
v -0.878332 8.308227 -0.000000
v -0.439166 8.308227 0.760658
v 0.439166 8.308227 0.760658
v 0.878332 8.308227 0.000000
v 0.439166 11.979497 -0.760658
v -0.439166 11.979497 -0.760658
v -0.878332 11.979497 -0.000000
v -0.439166 11.979497 0.760658
v 0.439166 11.979497 0.760658
v 0.878332 11.979497 0.000000
v 0.000000 8.308227 0.000000
v 0.000000 11.979497 0.000000
vt 0.578125 0.020934
vt 0.421875 0.020934
vt 0.343750 0.156250
vt 0.421875 0.291566
vt 0.578125 0.291566
vt 0.656250 0.156250
vt 0.375000 0.312500
vt 0.416667 0.312500
vt 0.458333 0.312500
vt 0.500000 0.312500
vt 0.541667 0.312500
vt 0.583333 0.312500
vt 0.625000 0.312500
vt 0.375000 0.688440
vt 0.416667 0.688440
vt 0.458333 0.688440
vt 0.500000 0.688440
vt 0.541667 0.688440
vt 0.583333 0.688440
vt 0.625000 0.688440
vt 0.578125 0.708434
vt 0.421875 0.708434
vt 0.343750 0.843750
vt 0.421875 0.979066
vt 0.578125 0.979066
vt 0.656250 0.843750
vt 0.500000 0.150000
vt 0.500000 0.837500
vn 0.000000 0.000000 -1.000000
vn 0.000000 0.000000 -1.000000
vn 0.000000 0.000000 -1.000000
vn 0.000000 0.000000 -1.000000
vn -0.866025 0.000000 -0.500000
vn -0.866025 0.000000 -0.500000
vn -0.866025 0.000000 -0.500000
vn -0.866025 0.000000 -0.500000
vn -0.866026 0.000000 0.500000
vn -0.866026 0.000000 0.500000
vn -0.866026 0.000000 0.500000
vn -0.866026 0.000000 0.500000
vn -0.000000 0.000000 1.000000
vn -0.000000 0.000000 1.000000
vn -0.000000 0.000000 1.000000
vn -0.000000 0.000000 1.000000
vn 0.866025 0.000000 0.500000
vn 0.866025 0.000000 0.500000
vn 0.866025 0.000000 0.500000
vn 0.866025 0.000000 0.500000
vn 0.866026 0.000000 -0.500000
vn 0.866026 0.000000 -0.500000
vn 0.866026 0.000000 -0.500000
vn 0.866026 0.000000 -0.500000
vn 0.000000 -1.000000 0.000000
vn 0.000000 -1.000000 0.000000
vn 0.000000 -1.000000 0.000000
vn 0.000000 -1.000000 0.000000
vn 0.000000 -1.000000 -0.000000
vn 0.000000 -1.000000 -0.000000
vn 0.000000 -1.000000 0.000000
vn 0.000000 1.000000 0.000000
vn 0.000000 1.000000 -0.000000
vn 0.000000 1.000000 0.000000
vn 0.000000 1.000000 -0.000000
vn 0.000000 1.000000 0.000000
vn 0.000000 1.000000 0.000000
vn 0.000000 1.000000 0.000000
s off
usemtl lambert2SG
f 1/7/1 2/8/2 8/15/3 7/14/4
f 2/8/5 3/9/6 9/16/7 8/15/8
f 3/9/9 4/10/10 10/17/11 9/16/12
f 4/10/13 5/11/14 11/18/15 10/17/16
f 5/11/17 6/12/18 12/19/19 11/18/20
f 6/12/21 1/13/22 7/20/23 12/19/24
s 1
f 2/2/25 1/1/26 13/27/27
f 3/3/28 2/2/25 13/27/27
f 4/4/29 3/3/28 13/27/27
f 5/5/30 4/4/29 13/27/27
f 6/6/31 5/5/30 13/27/27
f 1/1/26 6/6/31 13/27/27
s 2
f 7/25/32 8/24/33 14/28/34
f 8/24/33 9/23/35 14/28/34
f 9/23/35 10/22/36 14/28/34
f 10/22/36 11/21/37 14/28/34
f 11/21/37 12/26/38 14/28/34
f 12/26/38 7/25/32 14/28/34
v -0.958998 7.511510 0.958998
v 0.958998 7.511510 0.958998
v -0.958998 8.457755 0.958998
v 0.958998 8.457755 0.958998
v -0.958998 8.457755 -0.958998
v 0.958998 8.457755 -0.958998
v -0.958998 7.511510 -0.958998
v 0.958998 7.511510 -0.958998
vt 0.375000 0.000000
vt 0.625000 0.000000
vt 0.375000 0.250000
vt 0.625000 0.250000
vt 0.375000 0.500000
vt 0.625000 0.500000
vt 0.375000 0.750000
vt 0.625000 0.750000
vt 0.375000 1.000000
vt 0.625000 1.000000
vt 0.875000 0.000000
vt 0.875000 0.250000
vt 0.125000 0.000000
vt 0.125000 0.250000
vn 0.000000 0.000000 1.000000
vn 0.000000 0.000000 1.000000
vn 0.000000 0.000000 1.000000
vn 0.000000 0.000000 1.000000
vn 0.000000 1.000000 0.000000
vn 0.000000 1.000000 0.000000
vn 0.000000 1.000000 0.000000
vn 0.000000 1.000000 0.000000
vn 0.000000 0.000000 -1.000000
vn 0.000000 0.000000 -1.000000
vn 0.000000 0.000000 -1.000000
vn 0.000000 0.000000 -1.000000
vn 0.000000 -1.000000 0.000000
vn 0.000000 -1.000000 0.000000
vn 0.000000 -1.000000 0.000000
vn 0.000000 -1.000000 0.000000
vn 1.000000 0.000000 0.000000
vn 1.000000 0.000000 0.000000
vn 1.000000 0.000000 0.000000
vn 1.000000 0.000000 0.000000
vn -1.000000 0.000000 0.000000
vn -1.000000 0.000000 0.000000
vn -1.000000 0.000000 0.000000
vn -1.000000 0.000000 0.000000
s off
f 15/29/39 16/30/40 18/32/41 17/31/42
f 17/31/43 18/32/44 20/34/45 19/33/46
f 19/33/47 20/34/48 22/36/49 21/35/50
f 21/35/51 22/36/52 16/38/53 15/37/54
f 16/30/55 22/39/56 20/40/57 18/32/58
f 21/41/59 15/29/60 17/31/61 19/42/62
v 0.439166 7.278623 -0.760658
v -0.439166 7.278623 -0.760658
v -0.878332 7.278623 -0.000000
v -0.439166 7.278623 0.760658
v 0.439166 7.278623 0.760658
v 0.878332 7.278623 0.000000
v 0.439166 7.562925 -0.760658
v -0.439166 7.562925 -0.760658
v -0.878332 7.562925 -0.000000
v -0.439166 7.562925 0.760658
v 0.439166 7.562925 0.760658
v 0.878332 7.562925 0.000000
v 0.000000 7.278623 0.000000
v 0.000000 7.562925 0.000000
vt 0.578125 0.020934
vt 0.421875 0.020934
vt 0.343750 0.156250
vt 0.421875 0.291566
vt 0.578125 0.291566
vt 0.656250 0.156250
vt 0.375000 0.312500
vt 0.416667 0.312500
vt 0.458333 0.312500
vt 0.500000 0.312500
vt 0.541667 0.312500
vt 0.583333 0.312500
vt 0.625000 0.312500
vt 0.375000 0.688440
vt 0.416667 0.688440
vt 0.458333 0.688440
vt 0.500000 0.688440
vt 0.541667 0.688440
vt 0.583333 0.688440
vt 0.625000 0.688440
vt 0.578125 0.708434
vt 0.421875 0.708434
vt 0.343750 0.843750
vt 0.421875 0.979066
vt 0.578125 0.979066
vt 0.656250 0.843750
vt 0.500000 0.150000
vt 0.500000 0.837500
vn 0.000000 0.000000 -1.000000
vn 0.000000 0.000000 -1.000000
vn 0.000000 0.000000 -1.000000
vn 0.000000 0.000000 -1.000000
vn -0.866025 0.000000 -0.500000
vn -0.866025 0.000000 -0.500000
vn -0.866025 0.000000 -0.500000
vn -0.866025 0.000000 -0.500000
vn -0.866026 0.000000 0.500000
vn -0.866026 0.000000 0.500000
vn -0.866026 0.000000 0.500000
vn -0.866026 0.000000 0.500000
vn -0.000000 0.000000 1.000000
vn -0.000000 0.000000 1.000000
vn -0.000000 0.000000 1.000000
vn -0.000000 0.000000 1.000000
vn 0.866025 0.000000 0.500000
vn 0.866025 0.000000 0.500000
vn 0.866025 0.000000 0.500000
vn 0.866025 0.000000 0.500000
vn 0.866026 0.000000 -0.500000
vn 0.866026 0.000000 -0.500000
vn 0.866026 0.000000 -0.500000
vn 0.866026 0.000000 -0.500000
vn 0.000000 -1.000000 0.000000
vn 0.000000 -1.000000 0.000000
vn 0.000000 -1.000000 0.000000
vn 0.000000 -1.000000 0.000000
vn 0.000000 -1.000000 -0.000000
vn 0.000000 -1.000000 -0.000000
vn 0.000000 -1.000000 0.000000
vn 0.000000 1.000000 0.000000
vn 0.000000 1.000000 -0.000000
vn 0.000000 1.000000 0.000000
vn 0.000000 1.000000 -0.000000
vn 0.000000 1.000000 0.000000
vn 0.000000 1.000000 0.000000
vn 0.000000 1.000000 0.000000
s off
usemtl lambert3SG
f 23/49/63 24/50/64 30/57/65 29/56/66
f 24/50/67 25/51/68 31/58/69 30/57/70
f 25/51/71 26/52/72 32/59/73 31/58/74
f 26/52/75 27/53/76 33/60/77 32/59/78
f 27/53/79 28/54/80 34/61/81 33/60/82
f 28/54/83 23/55/84 29/62/85 34/61/86
s 1
f 24/44/87 23/43/88 35/69/89
f 25/45/90 24/44/87 35/69/89
f 26/46/91 25/45/90 35/69/89
f 27/47/92 26/46/91 35/69/89
f 28/48/93 27/47/92 35/69/89
f 23/43/88 28/48/93 35/69/89
s 2
f 29/67/94 30/66/95 36/70/96
f 30/66/95 31/65/97 36/70/96
f 31/65/97 32/64/98 36/70/96
f 32/64/98 33/63/99 36/70/96
f 33/63/99 34/68/100 36/70/96
f 34/68/100 29/67/94 36/70/96
v 0.250507 6.203630 -0.433891
v -0.250507 6.203630 -0.433891
v -0.501014 6.203630 -0.000000
v -0.250507 6.203630 0.433891
v 0.250507 6.203630 0.433891
v 0.501014 6.203630 0.000000
v 0.250507 7.506878 -0.433891
v -0.250507 7.506878 -0.433891
v -0.501014 7.506878 -0.000000
v -0.250507 7.506878 0.433891
v 0.250507 7.506878 0.433891
v 0.501014 7.506878 0.000000
v 0.000000 6.203630 0.000000
v 0.000000 7.506878 0.000000
vt 0.578125 0.020934
vt 0.421875 0.020934
vt 0.343750 0.156250
vt 0.421875 0.291566
vt 0.578125 0.291566
vt 0.656250 0.156250
vt 0.375000 0.312500
vt 0.416667 0.312500
vt 0.458333 0.312500
vt 0.500000 0.312500
vt 0.541667 0.312500
vt 0.583333 0.312500
vt 0.625000 0.312500
vt 0.375000 0.688440
vt 0.416667 0.688440
vt 0.458333 0.688440
vt 0.500000 0.688440
vt 0.541667 0.688440
vt 0.583333 0.688440
vt 0.625000 0.688440
vt 0.578125 0.708434
vt 0.421875 0.708434
vt 0.343750 0.843750
vt 0.421875 0.979066
vt 0.578125 0.979066
vt 0.656250 0.843750
vt 0.500000 0.150000
vt 0.500000 0.837500
vn 0.000000 0.000000 -1.000000
vn 0.000000 0.000000 -1.000000
vn 0.000000 0.000000 -1.000000
vn 0.000000 0.000000 -1.000000
vn -0.866025 0.000000 -0.500000
vn -0.866025 0.000000 -0.500000
vn -0.866025 0.000000 -0.500000
vn -0.866025 0.000000 -0.500000
vn -0.866026 0.000000 0.500000
vn -0.866026 0.000000 0.500000
vn -0.866026 0.000000 0.500000
vn -0.866026 0.000000 0.500000
vn -0.000000 0.000000 1.000000
vn -0.000000 0.000000 1.000000
vn -0.000000 0.000000 1.000000
vn -0.000000 0.000000 1.000000
vn 0.866025 0.000000 0.500000
vn 0.866025 0.000000 0.500000
vn 0.866025 0.000000 0.500000
vn 0.866025 0.000000 0.500000
vn 0.866025 0.000000 -0.500000
vn 0.866025 0.000000 -0.500000
vn 0.866025 0.000000 -0.500000
vn 0.866025 0.000000 -0.500000
vn 0.000000 -1.000000 0.000000
vn 0.000000 -1.000000 0.000000
vn 0.000000 -1.000000 0.000000
vn 0.000000 -1.000000 0.000000
vn 0.000000 -1.000000 -0.000000
vn 0.000000 -1.000000 -0.000000
vn 0.000000 -1.000000 0.000000
vn 0.000000 1.000000 0.000000
vn 0.000000 1.000000 -0.000000
vn 0.000000 1.000000 0.000000
vn 0.000000 1.000000 -0.000000
vn 0.000000 1.000000 0.000000
vn 0.000000 1.000000 0.000000
vn 0.000000 1.000000 0.000000
s off
usemtl lambert2SG
f 37/77/101 38/78/102 44/85/103 43/84/104
f 38/78/105 39/79/106 45/86/107 44/85/108
f 39/79/109 40/80/110 46/87/111 45/86/112
f 40/80/113 41/81/114 47/88/115 46/87/116
f 41/81/117 42/82/118 48/89/119 47/88/120
f 42/82/121 37/83/122 43/90/123 48/89/124
s 1
f 38/72/125 37/71/126 49/97/127
f 39/73/128 38/72/125 49/97/127
f 40/74/129 39/73/128 49/97/127
f 41/75/130 40/74/129 49/97/127
f 42/76/131 41/75/130 49/97/127
f 37/71/126 42/76/131 49/97/127
s 2
f 43/95/132 44/94/133 50/98/134
f 44/94/133 45/93/135 50/98/134
f 45/93/135 46/92/136 50/98/134
f 46/92/136 47/91/137 50/98/134
f 47/91/137 48/96/138 50/98/134
f 48/96/138 43/95/132 50/98/134
