# This file uses centimeters as units for non-parametric coordinates.

mtllib Simple Table.mtl
g default
v -3.519362 2.317007 1.522060
v 3.519362 2.317007 1.522060
v -3.258014 2.617238 1.522060
v 3.258014 2.617238 1.522060
v -3.258014 2.617238 -1.522060
v 3.258014 2.617238 -1.522060
v -3.519362 2.317007 -1.522060
v 3.519362 2.317007 -1.522060
v -3.519362 0.003861 -1.522060
v -3.258014 0.003861 -1.522060
v -3.258014 0.003861 1.522060
v -3.519362 0.003861 1.522060
v 3.258014 0.003861 -1.522060
v 3.519362 0.003861 -1.522060
v 3.519362 0.003861 1.522060
v 3.258014 0.003861 1.522060
v -3.416623 2.589709 1.522060
v -3.491833 2.514499 1.522060
v -3.519362 2.411760 1.522060
v -3.313884 2.617238 1.522060
v -3.519362 2.411760 -1.522060
v -3.491833 2.514499 -1.522060
v -3.416623 2.589709 -1.522060
v -3.313884 2.617238 -1.522060
v 3.491833 2.514499 1.522060
v 3.416623 2.589709 1.522060
v 3.313884 2.617238 1.522060
v 3.519362 2.411760 1.522060
v 3.519362 2.411760 -1.522060
v 3.313884 2.617238 -1.522060
v 3.416623 2.589709 -1.522060
v 3.491833 2.514499 -1.522060
v -3.258014 2.106891 1.522060
v -3.229864 2.211949 1.522060
v -3.152956 2.288857 1.522060
v -3.047898 2.317007 1.522060
v -3.258014 2.496352 1.522060
v -3.437359 2.317007 1.522060
v -3.258014 2.106891 -1.522060
v -3.437359 2.317007 -1.522060
v -3.258014 2.496352 -1.522060
v -3.047898 2.317007 -1.522060
v -3.152956 2.288857 -1.522060
v -3.229864 2.211949 -1.522060
v 3.258014 2.106891 1.522060
v 3.437359 2.317007 1.522060
v 3.258014 2.496352 1.522060
v 3.047898 2.317007 1.522060
v 3.152956 2.288857 1.522060
v 3.229864 2.211949 1.522060
v 3.258014 2.106891 -1.522060
v 3.229864 2.211949 -1.522060
v 3.152956 2.288857 -1.522060
v 3.047898 2.317007 -1.522060
v 3.258014 2.496352 -1.522060
v 3.437359 2.317007 -1.522060
v -3.317796 2.317007 1.522060
v -3.258014 2.376789 1.522060
v -3.258014 2.376789 -1.522060
v -3.317796 2.317007 -1.522060
v 3.258014 2.376789 1.522060
v 3.317796 2.317007 1.522060
v 3.317796 2.317007 -1.522060
v 3.258014 2.376789 -1.522060
vt 0.375000 0.750000
vt 0.375000 1.000000
vt 0.625000 0.750000
vt 0.625000 1.000000
vt 0.125000 0.000000
vt 0.125000 0.078901
vt 0.458333 0.500000
vt 0.625000 0.000000
vt 0.875000 0.000000
vt 0.375000 0.078901
vt 0.440518 0.500000
vt 0.559479 0.250000
vt 0.875000 0.078901
vt 0.422815 0.250000
vt 0.375000 0.250000
vt 0.125000 0.250000
vt 0.625000 0.250000
vt 0.577185 0.250000
vt 0.875000 0.250000
vt 0.375000 1.000000
vt 0.458333 1.000000
vt 0.375000 0.000000
vt 0.401148 0.000000
vt 0.440521 0.250000
vt 0.375000 0.750000
vt 0.375000 0.671098
vt 0.375000 0.500000
vt 0.422813 0.500000
vt 0.625000 1.000000
vt 0.541667 0.250000
vt 0.541667 0.149339
vt 0.598852 0.000000
vt 0.625000 0.078901
vt 0.458333 0.149339
vt 0.461020 0.000000
vt 0.538980 0.000000
vt 0.458333 0.250000
vt 0.541667 0.750000
vt 0.541667 0.500000
vt 0.625000 0.671099
vt 0.625000 0.750000
vt 0.559482 0.500000
vt 0.577187 0.500000
vt 0.625000 0.500000
vt 0.458333 0.750000
vt 0.541667 1.000000
vt 0.461020 1.000000
vt 0.458333 0.750000
vt 0.541667 1.000000
vt 0.538980 0.750000
vt 0.458333 1.000000
vt 0.401119 1.000000
vt 0.458333 1.000000
vt 0.461020 0.750000
vt 0.458333 0.600661
vt 0.401148 0.750000
vt 0.538979 1.000000
vt 0.541667 1.000000
vt 0.598881 1.000000
vt 0.541667 0.750000
vt 0.598881 0.750000
vt 0.541667 0.600661
vt nan nan
vt nan nan
vt nan nan
vt nan nan
vt nan nan
vt nan nan
vt nan nan
vt nan nan
vt nan nan
vt nan nan
vt nan nan
vt nan nan
vt nan nan
vt nan nan
vt nan nan
vt nan nan
vn -0.171007 0.985270 0.000000
vn -0.171007 0.985270 0.000000
vn 0.000000 1.000000 0.000000
vn 0.000000 1.000000 0.000000
vn 0.000000 1.000000 0.000000
vn 0.000000 1.000000 0.000000
vn 0.171007 0.985270 0.000000
vn 0.171007 0.985270 0.000000
vn -0.000000 0.000000 -1.000000
vn -0.000000 0.000000 -1.000000
vn -0.000000 0.000000 -1.000000
vn -0.000000 0.000000 -1.000000
vn -0.000000 0.000000 -1.000000
vn 0.000000 0.000000 -1.000000
vn 0.000000 -1.000000 0.000000
vn 0.000000 -1.000000 0.000000
vn 0.000000 -1.000000 0.000000
vn 0.000000 -1.000000 0.000000
vn 0.004540 -0.999990 0.000000
vn 0.004540 -0.999990 0.000000
vn -0.004540 -0.999990 0.000000
vn -0.004540 -0.999990 0.000000
vn 0.000000 -1.000000 0.000000
vn 0.000000 -1.000000 0.000000
vn 0.000000 -1.000000 0.000000
vn 0.000000 -1.000000 0.000000
vn 1.000000 0.000000 0.000000
vn 1.000000 0.000000 0.000000
vn 0.990424 0.138057 0.000000
vn 0.990424 0.138057 0.000000
vn -1.000000 0.000000 0.000000
vn -1.000000 0.000000 0.000000
vn -0.990424 0.138057 0.000000
vn -0.990424 0.138057 0.000000
vn 0.000000 0.000000 -1.000000
vn 0.000000 0.000000 -1.000000
vn 0.000000 0.000000 -1.000000
vn 0.000000 0.000000 -1.000000
vn 0.000000 0.000000 -1.000000
vn 0.999919 -0.012748 0.000000
vn 0.999919 -0.012748 0.000000
vn 1.000000 0.000000 0.000000
vn 1.000000 0.000000 0.000000
vn -1.000000 0.000000 0.000000
vn -1.000000 0.000000 0.000000
vn 1.000000 0.000000 0.000000
vn 1.000000 0.000000 0.000000
vn -0.000000 0.000000 1.000000
vn -0.000000 0.000000 1.000000
vn 0.000000 0.000000 1.000000
vn 0.000000 0.000000 1.000000
vn 0.000000 0.000000 1.000000
vn -0.999919 -0.012748 0.000000
vn -0.999919 -0.012748 0.000000
vn -1.000000 0.000000 0.000000
vn -1.000000 0.000000 0.000000
vn -0.866024 0.500002 0.000000
vn -0.866024 0.500002 0.000000
vn -0.707104 0.707109 0.000000
vn -0.707104 0.707109 0.000000
vn -0.258820 0.965926 0.000000
vn -0.258820 0.965926 0.000000
vn 0.258820 0.965926 0.000000
vn 0.258820 0.965926 0.000000
vn 0.707104 0.707109 0.000000
vn 0.866024 0.500002 0.000000
vn 0.866024 0.500002 0.000000
vn 0.707104 0.707109 0.000000
vn 0.000001 0.000000 1.000000
vn 0.000001 0.000000 1.000000
vn 0.000001 0.000000 1.000000
vn 0.000000 0.000000 1.000000
vn 0.000000 0.000000 1.000000
vn 0.000000 0.000000 1.000000
vn 0.000000 0.000000 1.000000
vn 0.000001 0.000000 1.000000
vn 0.000000 0.000000 -1.000000
vn 0.000000 0.000000 -1.000000
vn 0.000000 0.000000 -1.000000
vn 0.000000 0.000000 -1.000000
vn -0.000000 0.000000 1.000000
vn -0.000000 0.000000 1.000000
vn -0.000000 0.000000 1.000000
vn -0.000000 0.000000 1.000000
vn -0.000000 0.000000 1.000000
vn -0.000000 0.000000 1.000000
vn -0.000000 0.000000 -1.000000
vn -0.000000 0.000000 -1.000000
vn -0.000000 0.000000 -1.000000
vn -0.000000 0.000000 -1.000000
vn -0.000000 0.000000 -1.000000
vn -0.000000 0.000000 -1.000000
vn 0.000000 0.000000 1.000000
vn 0.000000 0.000000 1.000000
vn 0.000000 0.000000 1.000000
vn 0.000000 0.000000 1.000000
vn 0.000000 0.000000 1.000000
vn 0.000000 0.000000 -1.000000
vn 0.000000 0.000000 -1.000000
vn 0.000000 0.000000 -1.000000
vn 0.499999 -0.866026 0.000000
vn 0.499999 -0.866026 0.000000
vn 0.707106 -0.707108 0.000000
vn 0.707106 -0.707108 0.000000
vn 0.965926 -0.258819 0.000000
vn 0.965926 -0.258819 0.000000
vn -0.965926 -0.258819 0.000000
vn -0.965926 -0.258819 0.000000
vn -0.707106 -0.707108 0.000000
vn -0.707106 -0.707108 0.000000
vn -0.707106 -0.707108 0.000000
vn -0.707106 -0.707108 0.000000
vn -0.258819 -0.965926 0.000000
vn -0.258819 -0.965926 0.000000
vn 0.000000 0.000000 1.000000
vn 0.000000 0.000000 1.000000
vn 0.000001 0.000000 1.000000
vn 0.000000 0.000000 1.000000
vn 0.000001 0.000000 -1.000000
vn 0.000000 0.000000 -1.000000
vn 0.000000 0.000000 -1.000000
vn 0.000000 0.000000 -1.000000
vn -0.000001 0.000000 1.000000
vn -0.000000 0.000000 1.000000
vn -0.000000 0.000000 1.000000
vn -0.000000 0.000000 1.000000
vn 0.000000 0.000000 -1.000000
vn 0.000000 0.000000 -1.000000
vn -0.000001 0.000000 -1.000000
vn -0.000000 0.000000 -1.000000
s 1
g pCube1
usemtl initialShadingGroup
f 24/11/1 20/24/2 3/37/3 5/7/4
f 3/37/3 4/30/5 6/39/6 5/7/4
f 4/30/5 27/12/7 30/42/8 6/39/6
s 2
f 5/7/9 6/39/10 55/62/11 54/50/12 42/54/13 41/55/14
s off
f 9/1/15 10/45/16 11/21/17 12/2/18
s 3
f 36/47/19 42/54/20 54/50/21 48/57/22
s off
f 13/38/23 14/3/24 15/4/25 16/46/26
s 4
f 2/8/27 8/9/28 29/13/29 28/33/30
s 5
f 7/5/31 1/22/32 19/10/33 21/6/34
s 2
f 7/25/35 40/56/36 39/48/37 10/45/38 9/1/39
s 6
f 39/48/40 33/51/41 11/21/42 10/45/43
s 5
f 1/20/32 7/25/31 9/1/44 12/2/45
s 4
f 8/41/28 2/29/27 15/4/46 14/3/47
s 7
f 2/29/48 46/59/49 45/49/50 16/46/51 15/4/52
s 8
f 45/49/53 51/60/54 13/38/55 16/46/56
s 5
f 19/10/33 18/15/57 22/16/58 21/6/34
f 18/15/57 17/14/59 23/28/60 22/27/58
s 1
f 17/14/61 20/24/2 24/11/1 23/28/62
f 27/12/7 26/18/63 31/43/64 30/42/8
s 4
f 26/18/65 25/17/66 32/44/67 31/43/68
f 25/17/66 28/33/30 29/13/29 32/19/67
s 7
f 17/14/69 18/15/70 19/10/71 1/22/72 38/23/73 37/34/74 3/37/75 20/24/76
s 2
f 5/7/9 41/55/14 40/56/36 7/25/35 21/26/77 22/27/78 23/28/79 24/11/80
s 7
f 25/17/81 26/18/82 27/12/83 4/30/84 47/31/85 46/32/49 2/8/48 28/33/86
s 2
f 29/40/87 8/41/88 56/61/89 55/62/11 6/39/10 30/42/90 31/43/91 32/44/92
s 7
f 33/51/93 38/52/73 1/20/72 12/2/94 11/21/95
f 37/34/74 36/35/96 48/36/97 47/31/85 4/30/84 3/37/75
s 2
f 51/60/98 56/61/89 8/41/88 14/3/99 13/38/100
s 3
f 36/47/19 35/64/101 43/65/102 42/54/20
f 35/64/101 34/63/103 44/66/104 43/65/102
s 6
f 34/63/105 33/51/41 39/48/40 44/66/106
s 8
f 45/49/53 50/68/107 52/69/108 51/60/54
s off
f 50/68/109 49/67/110 53/70/111 52/69/112
s 3
f 49/67/113 48/57/22 54/50/21 53/70/114
s 7
f 33/51/93 34/63/115 57/71/116 38/52/73
f 38/52/73 57/71/116 58/72/117 37/53/74
f 37/53/74 58/72/117 35/64/118 36/47/96
f 35/64/118 58/72/117 57/71/116 34/63/115
s 2
f 42/54/13 43/65/119 59/73/120 41/55/14
f 41/55/14 59/73/120 60/74/121 40/56/36
f 40/56/36 60/74/121 44/66/122 39/48/37
f 44/66/122 60/74/121 59/73/120 43/65/119
s 7
f 48/57/97 49/67/123 61/75/124 47/58/85
f 47/58/85 61/75/124 62/76/125 46/59/49
f 46/59/49 62/76/125 50/68/126 45/49/50
f 50/68/126 62/76/125 61/75/124 49/67/123
s 2
f 51/60/98 52/69/127 63/77/128 56/61/89
f 56/61/89 63/77/128 64/78/129 55/62/11
f 55/62/11 64/78/129 53/70/130 54/50/12
f 53/70/130 64/78/129 63/77/128 52/69/127
